<svg width="31" height="25" viewBox="0 0 31 25" fill="none" xmlns="http://www.w3.org/2000/svg">
<path fill-rule="evenodd" clip-rule="evenodd" d="M2.93605 1.9863L0.0454249 3.97261V0L2.93605 1.9863ZM0 5.82192H3.00459V25H0V5.82192ZM5.2579 5.82192H9.01321L11.9267 17.2375V5.82192H14.7034V25H11.6305L8.03465 11.0046V25H5.37125L5.2579 5.82192ZM21.5317 5.82192H16.9795V25H21.5317C24.6044 25 26.0839 23.3334 26.0839 20.2512V10.5708C26.0839 7.48862 24.5134 5.82192 21.5317 5.82192ZM23.0565 20.3881C23.0565 21.758 22.4876 22.2603 21.5317 22.2603H20.0069V8.56167H21.5317C22.4876 8.56167 23.0565 9.06397 23.0565 10.4338V20.3881ZM27.996 5.82192H31V25H27.996V5.82192Z" fill="#FF4E4E"/>
</svg>
