<svg width="34" height="28" viewBox="0 0 34 28" fill="none" xmlns="http://www.w3.org/2000/svg">
<path fill-rule="evenodd" clip-rule="evenodd" d="M3.22018 2.14882L0.0498208 4.29763V0L3.22018 2.14882ZM0 6.29825H3.29535V27.0454H0V6.29825ZM5.76672 6.29825H9.88545L13.0809 18.6478V6.29825H16.1263V27.0454H12.756L8.81219 11.905V27.0454H5.89105L5.76672 6.29825ZM23.6154 6.29825H18.6227V27.0454H23.6154C26.9855 27.0454 28.6081 25.2424 28.6081 21.9081V11.4357C28.6081 8.10132 26.8856 6.29825 23.6154 6.29825ZM25.2877 22.0563C25.2877 23.5382 24.6639 24.0816 23.6154 24.0816H21.943V9.26216H23.6154C24.6639 9.26216 25.2877 9.80556 25.2877 11.2875V22.0563ZM30.7052 6.29825H34V27.0454H30.7052V6.29825Z" fill="#FF4E4E"/>
</svg>
